<?xml version="1.0" standalone="no"?>
<!DOCTYPE svg PUBLIC "-//W3C//DTD SVG 20010904//EN"
 "http://www.w3.org/TR/2001/REC-SVG-20010904/DTD/svg10.dtd">
<svg version="1.0" xmlns="http://www.w3.org/2000/svg"
 width="32.000000pt" height="32.000000pt" viewBox="0 0 32.000000 32.000000"
 preserveAspectRatio="xMidYMid meet">

<g transform="translate(0.000000,32.000000) scale(0.100000,-0.100000)"
fill="#000000" stroke="none">
<path d="M132 256 l-13 -35 -34 15 c-45 19 -45 19 -45 -16 0 -16 -4 -30 -10
-30 -18 0 -11 -46 10 -65 21 -19 28 -41 9 -29 -7 4 -10 -1 -7 -12 2 -15 14
-20 51 -22 39 -3 47 -6 47 -23 0 -12 7 -19 20 -19 13 0 20 7 20 19 0 17 8 20
47 23 37 2 49 7 51 22 3 11 0 16 -7 12 -19 -12 -12 10 9 29 21 19 28 65 10 65
-5 0 -10 14 -10 30 0 35 0 35 -45 16 l-34 -15 -13 35 c-7 19 -19 34 -28 34 -9
0 -21 -15 -28 -34z"/>
</g>
</svg>
