<svg width="26" height="26" viewBox="0 0 26 26" fill="none" xmlns="http://www.w3.org/2000/svg">
<circle cx="13" cy="13" r="13" fill="white"/>
<path d="M18.7826 8.21985C17.3981 7.18357 15.2079 7.00791 15.1141 7.00159C14.9688 6.99022 14.8302 7.06604 14.7704 7.19115C14.7649 7.19874 14.7174 7.3011 14.6644 7.46033C15.5802 7.6044 16.7052 7.8938 17.7228 8.48144C17.8859 8.57496 17.9361 8.77463 17.8356 8.92628C17.769 9.02612 17.6562 9.08046 17.5394 9.08046C17.4769 9.08046 17.413 9.06403 17.356 9.03117C15.606 8.02144 13.4212 7.97089 13 7.97089C12.5788 7.97089 10.3927 8.02144 8.64402 9.03117C8.48098 9.12595 8.2663 9.07919 8.16576 8.92754C8.06386 8.77463 8.11413 8.57622 8.27717 8.48144C9.29484 7.89506 10.4198 7.6044 11.3356 7.4616C11.2826 7.3011 11.2351 7.2 11.231 7.19115C11.1698 7.06604 11.0326 6.98769 10.8859 7.00159C10.7921 7.00791 8.6019 7.18357 7.19837 8.23375C6.46603 8.86436 5 12.5495 5 15.7354C5 15.7922 5.0163 15.8466 5.0462 15.8959C6.05707 17.5488 8.81658 17.981 9.44565 18C9.44837 18 9.45245 18 9.45652 18C9.56793 18 9.67255 17.9507 9.73777 17.8673L10.3736 17.0535C8.65761 16.6415 7.78125 15.9414 7.73098 15.8996C7.58696 15.7821 7.57337 15.5774 7.70109 15.4434C7.82745 15.3095 8.04755 15.2968 8.19158 15.4144C8.21196 15.4321 9.82609 16.7059 13 16.7059C16.1793 16.7059 17.7935 15.427 17.8098 15.4144C17.9538 15.2981 18.1726 15.3095 18.3003 15.4447C18.4266 15.5787 18.413 15.7821 18.269 15.8996C18.2188 15.9414 17.3424 16.6415 15.6264 17.0535L16.2622 17.8673C16.3274 17.9507 16.4321 18 16.5435 18C16.5476 18 16.5516 18 16.5543 18C17.1834 17.981 19.9429 17.5488 20.9538 15.8959C20.9837 15.8466 21 15.7922 21 15.7354C21 12.5495 19.534 8.86436 18.7826 8.21985ZM10.7391 14.4413C10.0666 14.4413 9.52174 13.8625 9.52174 13.1472C9.52174 12.4319 10.0666 11.8531 10.7391 11.8531C11.4117 11.8531 11.9565 12.4319 11.9565 13.1472C11.9565 13.8625 11.4117 14.4413 10.7391 14.4413ZM15.2609 14.4413C14.5883 14.4413 14.0435 13.8625 14.0435 13.1472C14.0435 12.4319 14.5883 11.8531 15.2609 11.8531C15.9334 11.8531 16.4783 12.4319 16.4783 13.1472C16.4783 13.8625 15.9334 14.4413 15.2609 14.4413Z" fill="black"/>
</svg>
