<svg width="26" height="26" viewBox="0 0 26 26" fill="none" xmlns="http://www.w3.org/2000/svg">
<circle cx="13" cy="13" r="13" fill="white"/>
<path d="M19 9.18316C18.5215 9.38393 18.0081 9.5201 17.4687 9.58089C18.0195 9.26855 18.4411 8.77313 18.6409 8.18462C18.1243 8.47387 17.554 8.6839 16.9464 8.79776C16.4598 8.30618 15.7676 8 15 8C13.5272 8 12.333 9.13086 12.333 10.5248C12.333 10.7225 12.3566 10.9156 12.4021 11.1002C10.186 10.9948 8.22094 9.98938 6.90575 8.46156C6.67585 8.8339 6.54507 9.26776 6.54507 9.73089C6.54507 10.6071 7.01623 11.3803 7.73111 11.8326C7.29405 11.8187 6.883 11.7049 6.52314 11.5156V11.5472C6.52314 12.7703 7.44273 13.7912 8.66205 14.0235C8.43865 14.0805 8.20308 14.112 7.95937 14.112C7.78716 14.112 7.62063 14.0958 7.45734 14.0651C7.79689 15.069 8.78147 15.799 9.94801 15.8191C9.03574 16.496 7.88545 16.8984 6.63607 16.8984C6.4208 16.8984 6.20877 16.8861 6 16.8638C7.18035 17.5815 8.58165 18 10.0877 18C14.9935 18 17.6751 14.152 17.6751 10.8148L17.6661 10.4879C18.1901 10.134 18.6434 9.68935 19 9.18316Z" fill="#1A1B20"/>
</svg>
