<?xml version="1.0" encoding="utf-8"?>
<!-- Generator: Adobe Illustrator 24.1.1, SVG Export Plug-In . SVG Version: 6.00 Build 0)  -->
<svg version="1.1" id="Layer_1" xmlns="http://www.w3.org/2000/svg" xmlns:xlink="http://www.w3.org/1999/xlink" x="0px" y="0px"
	 viewBox="0 0 292 336" style="enable-background:new 0 0 292 336;" xml:space="preserve">
<style type="text/css">
	.st0{fill-rule:evenodd;clip-rule:evenodd;fill:#FACA2D;}
	.st1{fill-rule:evenodd;clip-rule:evenodd;}
	.st2{fill-rule:evenodd;clip-rule:evenodd;fill:#ED8B0E;}
	.st3{fill-rule:evenodd;clip-rule:evenodd;fill:#C90017;}
	.st4{fill-rule:evenodd;clip-rule:evenodd;fill:#78000E;}
	.st5{fill-rule:evenodd;clip-rule:evenodd;fill:#FC353C;}
	.st6{fill-rule:evenodd;clip-rule:evenodd;fill:#FFFFFF;}
	.st7{clip-path:url(#SVGID_4_);}
</style>
<g>
	<path class="st0" d="M98.3,51.2c-0.2-1.2-0.3-2.4-0.2-3.5c0.3-3.2,1.1-6.4,2.2-9.4c1.8-4.9,4.5-9.4,7.8-13.5
		c3.5-4.4,7.7-8.1,12.3-11.2c1-0.7,2.1-1.4,3.2-2c0.6-0.9,1.3-1.6,2.1-2.3c1.9-1.6,4.2-2.4,6.5-3.1c2-0.6,4.1-1.2,6.2-1.2
		c0.9,0,1.7,0.1,2.5,0.3c4.2-0.7,8.5-1.3,12.8-1.7c2.9-0.2,5.8-0.4,8.7-0.2c11.8,0.5,19.9,4.6,25.9,15c2,3.4,3.4,7,4.7,10.7
		c0.9,2.4,1.6,4.9,2.4,7.4c24.6-4.1,49.4-6.7,74.3-7.9l18.4-0.9l0.2,18.5c0.1,10.2-0.8,20.5-1.9,30.7c-2.6,24.4-7.4,48.5-14.3,72
		c-6.1,20.8-13.8,41.1-23.3,60.6l20.4-2.5V269l-39,4.8l-24.8,3c-15.5,18.5-33.1,35-52.5,49.2l-8.9,6.5l-9.8-5.1
		c-11.9-6.2-23.3-14.3-33.9-22.5c-5.5-4.2-10.7-8.7-15.9-13.3l-54.2,6.6l-8.2-9.9V247l7.3-10.7l9.1-1.1
		c-13.4-23.6-22.7-49.8-28.6-76.1c-3-13-5.5-26.6-6.3-40l-0.7-10.6l9-5.6C29.4,91.8,48,82.1,67.1,73.7c-0.5-4.2,1.3-8,4.4-10.9
		c2.1-2,4.5-3.5,7-4.8c2.1-1.2,4.4-2.1,6.7-2.9c2.4-0.9,4.9-1.6,7.4-2.3C94.4,52.2,96.4,51.7,98.3,51.2L98.3,51.2z"/>
	<path class="st1" d="M283.3,46.1c0.1,9.8-0.8,20.4-1.9,30.1c-2.6,24-7.4,48-14.1,71.2C247,216.9,208.9,278.8,149.9,322l-6.4,4.7
		l-7-3.7c-11.3-5.9-23.2-14.2-33.1-22c-22.5-17.5-42.9-38.8-57.6-63.3C31,213.4,20.9,185.7,14.6,158c-2.8-12.4-5.4-26.4-6.2-39.2
		l-0.5-7.6l6.5-4c75.6-47.4,167.1-69.4,255.6-73.7l13.3-0.7L283.3,46.1L283.3,46.1z"/>
	<path class="st0" d="M270.6,46.2c0,0,1.4,170.7-128.2,265.6c0,0-54.2-28.3-85.7-80.5C25.1,179,21.1,117.9,21.1,117.9
		C94.8,71.8,184.4,50.4,270.6,46.2L270.6,46.2z M246.9,70.3C176.9,76.5,105.8,94.8,45,129.8c4.3,30.4,16.3,65.5,30.9,89.8
		c12.5,20.7,30,38.8,49.1,53.7c4.8,3.7,10.2,7.7,15.7,11.4c46.1-38,76.1-89.7,92.8-147.1C239.2,117.9,244.5,93.2,246.9,70.3
		L246.9,70.3z"/>
	<path class="st2" d="M265.4,51.6c-82.6,4.7-168,25.4-238.9,69.1c0.2,2.4,0.5,4.8,0.8,7.2c1.2,8.8,2.8,17.5,4.7,26.2
		c4.6,5,10.1,10.3,16.7,15.5c-4-13.2-7.1-26.6-8.8-39l-0.5-3.4l3-1.7c61.6-35.5,133.5-53.9,204-60.2l6.2-0.5l-0.6,6.1
		c-1.3,12.6-3.3,25.4-6,38.1l8.9,16c4-16.6,7-33.6,8.8-50.6c0.7-6.8,1.3-13.6,1.6-20.5C265.3,53.1,265.3,52.3,265.4,51.6L265.4,51.6
		z M241.9,126.2c-1.1,4.3-2.3,8.6-3.5,12.8c-0.9,3.1-1.9,6.3-2.9,9.4l8.1,14.4c2.4-6.7,4.5-13.5,6.5-20.3c0.2-0.6,0.3-1.1,0.5-1.7
		L241.9,126.2L241.9,126.2z M141,291l-3.1-2.1c-5.5-3.6-10.8-7.5-16-11.6c-19.6-15.2-37.5-33.7-50.3-55c-2.5-4.2-4.9-8.6-7.2-13.2
		c-5.1-1.8-10.6-3.8-16.4-6c3.8,8.8,8.2,17.4,13.1,25.6c13.6,22.6,32.5,42.2,53.3,58.4c6.9,5.4,14.2,10.5,21.6,15.1
		c2,1.2,4,2.5,6,3.6L141,291L141,291z"/>
	<path class="st3" d="M238.9,78.2c-64.4,6.6-129.6,23.8-186.2,55.4c4.5,27.4,15.2,59.2,29.2,82.4c12.1,20,29,37.4,47.4,51.7
		c3.6,2.8,7.2,5.5,10.9,8.1c42.8-36.9,70.8-86.2,86.5-140.2C232.1,117.1,236.4,97.4,238.9,78.2L238.9,78.2z"/>
	<path class="st4" d="M193.2,84.7c-29.7,5.5-59.1,13.4-87.2,24.1c-0.1,0.7-0.2,1.4-0.3,2.1c0,0.2-0.1,0.3-0.1,0.5c0,0,0,0,0,0
		c-0.5,0.3-1,0.7-1.4,1.2c-1.2,0.8-2,2-2.3,3.4c-0.5,0.8-0.7,1.7-0.8,2.6c0,0.3,0,0.5,0,0.8c-0.3,1-0.3,2,0,3
		c0.1,0.3,0.1,0.5,0.2,0.7c0,0.2,0,0.3,0,0.5c-0.1,0.4-0.3,1-0.4,1.3c-0.1,0.1-0.2,0.2-0.2,0.3c-0.4,0.5-0.7,0.9-0.9,1.4
		c-0.3,0.8-0.5,1.7-0.4,2.6c0,0.1,0,0.3,0.1,0.4c-0.8,1.6-1.5,3.3-2.3,4.9c-0.5,1.1-0.9,2.1-1.3,3.3c-3.6,2.6-7.2,5.3-10.9,7.8
		c-2.3,1.6-4.5,3.2-6.7,4.9c-1.2,0.9-2.9,2.2-3.7,3.4c-1.1,1.5-1,3.2-0.7,4.8c-1,0.9-2,1.7-3,2.6c-3.2,2.8-6.3,5.7-9.4,8.7
		C63.2,175,65,180,66.9,185c0.6-0.8,1.3-1.5,1.9-2.2c1.9-2,3.9-3.9,5.9-5.8c1.7-1.6,3.5-3.2,5.2-4.8c1.2,1.4,2.4,2.7,3.6,4
		c-0.5,2.1-1,4.2-1.4,6.3c-0.4,2.1-0.8,4.2-1.1,6.3c-0.2,1.1-0.3,2.2-0.5,3.3c-2.4-0.2-4.9-0.4-7.3-0.7c-1.3-0.2-2.7-0.3-4-0.5
		c2.3,5.4,4.7,10.6,7.3,15.6c0.8,0.1,1.6,0.2,2.3,0.2c-0.1,1.2-0.2,2.3-0.4,3.5c1.1,2,2.2,3.9,3.3,5.8c9.9,16.4,23.1,31.1,37.7,43.8
		c10.2-1.3,20.1-3.8,29.9-7.2c1.2-0.4,2.4-0.8,3.6-1.3c4.5-1.7,9.1-3.3,13.7-4.6c0.9-0.3,1.9-0.5,2.9-0.8c2.7-3.2,5.3-6.6,7.9-9.9
		c-0.4-1.2-0.9-2.4-1.3-3.7c-1.4-4.1-2.5-8.3-3.4-12.5c-0.7-3.7-1.3-7.3-1.8-11c-0.5-3.5-0.8-7.1-1.1-10.6c-0.2-2.8-0.4-5.5-0.4-8.3
		c0-0.3,0-0.5,0-0.8l0.1,0c1.9-0.2,4-1,5.7-1.8c0,0,0,0,0,0c0.5,0.8,1,1.5,1.5,2.3c1,1.5,2,2.9,3.1,4.3c3.5,4.4,8.3,9.2,14.3,9.7
		c1.4,0.1,3,0,4.6-0.3c3.9-6.9,7.4-14.1,10.8-21.3c-1.4,1-2.8,1.9-4.2,2.7c-1.8,1-3.8,2.1-5.7,2.6c-1.5,0.4-3.1,0.6-4.6-0.1
		c-1.8-0.9-3.5-3-4.7-4.6c-1.4-1.7-2.6-3.6-3.8-5.5c0.3-0.7,0.5-1.5,0.5-2.4c0-2-1.4-3.8-2.4-5.4c-1.1-1.7-2.3-3.5-3.4-5.2
		c-1-1.5-2-3.1-2.8-4.8c-1.1-2.2-2.2-4.4-3.3-6.6c0.1-0.5,0.3-0.9,0.5-1.4c0.1-0.3,0.2-0.6,0.3-1c0.9-1.2,1.7-2.4,2.4-3.7
		c1.2-2.2,2.3-4.2,3-6.6c0.6-1.9,0.7-3.7,0.7-5.7c0-0.7,0-1.4-0.1-2.2c0.5-1.6,1-3.2,1.5-4.9c1.3-4.4,2.5-8.9,3.5-13.4
		c0.9-4.3,1.7-8.6,2.2-12.9c0.2-1.3,0.3-2.7,0.4-4c1.7-2.6,2.7-6.4,3.2-9.3C193,86.5,193.1,85.6,193.2,84.7L193.2,84.7z
		 M211.2,178.3c6.1-13.8,11.3-28.1,15.6-42.8c0.7-2.5,1.4-5,2.1-7.6l-14.1,11.2c-0.6,0.2-1.2,0.5-1.7,0.9c-1.6,1.2-3.1,2.5-4.7,3.7
		c-0.9,0.7-1.8,1.5-2.8,2.2c-0.4,0.3-0.8,0.6-1.1,0.9c-0.6,0-1.2,0.1-1.8,0.2c-2.3,0.6-4.3,2.5-4.6,5c-0.1,0.8,0.1,1.6,0.4,2.4
		c0,0,0,0.1,0,0.1c-3.4,2.7-3,7.7,0.7,9.4c-0.3,0.5-0.5,1-0.7,1.5c-0.9,2.3-0.9,4.9,1.1,6.7c2.8,2.6,6.1,1.2,8.7-0.7
		c0.2-0.1,0.4-0.3,0.6-0.5c0.1,0.3,0.2,0.6,0.3,0.9c0.4,1.3,0.8,2.7,1.2,4C210.6,176.7,210.9,177.5,211.2,178.3L211.2,178.3z"/>
	<path class="st5" d="M57.6,136C72,128,87,120.8,102.4,114.6c0.4-0.8,1-1.5,1.8-2.1c0.4-0.5,0.8-0.9,1.4-1.2c0,0,0,0,0,0
		c0-0.2,0.1-0.3,0.1-0.5c0.1-0.7,0.2-1.4,0.3-2.1c-18.4,7-36.2,15.2-53.3,24.8c1.9,11.7,5,24.1,8.9,36.3c1.1-1,2.1-2.1,3.2-3.1
		C61.7,156.4,59.2,145.9,57.6,136L57.6,136z M192.7,88.2c15.2-3,30.5-5.3,45.7-7c0.1-1,0.3-2,0.4-3c-15.2,1.6-30.5,3.7-45.7,6.5
		c0,0.9-0.1,1.8-0.3,2.7C192.8,87.7,192.8,87.9,192.7,88.2L192.7,88.2z M66.9,185c0.8,2,1.6,3.9,2.4,5.8c1.3,0.2,2.7,0.4,4,0.5
		l0.1,0c-1.3-3.1-2.5-6.3-3.7-9.5c-0.3,0.3-0.6,0.6-0.9,0.9C68.2,183.5,67.6,184.2,66.9,185L66.9,185z M76.6,206.4
		c0.7,1.3,1.3,2.5,2,3.7c0.1-1.2,0.2-2.3,0.4-3.5C78.2,206.6,77.4,206.5,76.6,206.4L76.6,206.4z M119.6,259.7c3.2,2.8,6.4,5.4,9.7,8
		c3.6,2.8,7.2,5.5,10.9,8.1c0.2-0.2,0.4-0.4,0.7-0.6c-2.3-1.6-4.5-3.3-6.7-5c-4.4-3.4-8.6-7-12.8-10.7
		C120.8,259.6,120.2,259.6,119.6,259.7L119.6,259.7z"/>
	<path class="st1" d="M248.3,175.2c-0.3,0.9-0.7,1.8-1.3,2.6c-0.7,0.9-1.6,1.6-2.5,2.3c-1,0.8-2,1.6-3,2.3c-1,0.8-2,1.5-3,2.3
		c-0.5,0.3-1,0.7-1.4,1.1c-0.6,0.5-1.3,0.9-2,1.1c-0.5,0.5-0.9,1-1.4,1.5c-2.2,2.3-4.6,4.4-7.1,6.4c-1.5,1.2-3.2,2.4-4.9,3.4
		c-4.6,2.7-11.8,5.7-17.2,5.2c-5.9-0.5-10.8-5.2-14.3-9.7c-1.1-1.4-2.1-2.9-3.1-4.3c-0.5-0.7-1-1.5-1.5-2.3c0,0,0,0,0,0
		c-1.7,0.8-3.8,1.6-5.7,1.8l-0.1,0c0,0.3,0,0.5,0,0.8c0,2.8,0.2,5.6,0.4,8.3c0.3,3.6,0.6,7.1,1.1,10.6c0.5,3.7,1,7.4,1.8,11
		c0.8,4.2,2,8.4,3.4,12.5c0.4,1.3,0.9,2.7,1.4,4c0.4,1.1,0.9,2.1,0.9,3.3c0,3.7-3.1,5.2-6.2,5.7c-1.9,0.3-3.7,0.8-5.5,1.4
		c-4.6,1.3-9.2,2.9-13.7,4.6c-1.2,0.4-2.4,0.9-3.6,1.3c-12.6,4.4-25.2,7.2-38.5,8c-7.3,0.5-14.7-0.8-21.6-3.1
		c-3.1-1.1-6.4-2.4-9.3-4l-2.1-1.2l-0.3-2.4c-0.2-1.9-0.4-3.8-0.5-5.7c-0.1-2.4-0.2-4.8-0.2-7.1l0-0.1c0-8,0.6-16.1,1.3-24.1
		c0.2-2,0.4-4.1,0.6-6.1c-2.7-0.3-5.4-0.6-8.1-0.9c-1.9-0.2-3.9-0.5-5.8-0.8c-1.7-0.3-3.3-0.6-5-1c-3.6-0.9-7.6-2.4-9.9-5.5
		c-1.7-2.3-2.1-5-1.7-7.8c1.2-7.6,6.3-13.9,11.6-19.2c3.5-3.5,7.2-6.9,10.9-10.2c1-0.9,2-1.7,3-2.6c-0.3-1.7-0.4-3.3,0.7-4.8
		c0.8-1.2,2.6-2.5,3.7-3.4c2.2-1.7,4.4-3.3,6.7-4.9c3.7-2.5,7.3-5.1,10.9-7.8c0.4-1.1,0.8-2.2,1.3-3.3c0.7-1.7,1.5-3.3,2.3-4.9
		c0-0.1,0-0.3-0.1-0.4c-0.1-0.9,0-1.8,0.4-2.6c0.2-0.5,0.5-1,0.9-1.4c0.1-0.1,0.2-0.2,0.2-0.3c0.2-0.3,0.3-0.8,0.4-1.3
		c0-0.2,0-0.3,0-0.5c-0.1-0.2-0.2-0.5-0.2-0.7c-0.2-1-0.2-2,0-3c0-0.3,0-0.5,0-0.8c0-0.9,0.3-1.8,0.8-2.6c0.3-1.4,1.1-2.6,2.3-3.4
		c0.4-0.5,0.8-0.9,1.4-1.2c0,0,0,0,0,0c0-0.2,0-0.3,0.1-0.5c0.1-0.8,0.2-1.6,0.3-2.3c-0.4-0.2-0.9-0.5-1.2-0.8
		c-2.3-2-2.3-4.6-2.1-7.4c0.1-1.8,0.7-3.6,1.7-5.2c-1.7-0.5-3.1-1.5-3.8-3.2c-0.6-1.5-0.5-2.9,0.2-4.3c0-0.2-0.1-0.4-0.1-0.6
		c-0.3-1.9,0.1-3.7,1-5.3c0.5-0.8,1.1-1.5,1.9-2c-1.9,0.3-3.7,0.6-5.6,0.9c-4.7,0.6-9.4,0.9-14.1,1.1c-4.6,0.1-11.6,0.3-15.7-1.5
		c-3-1.3-5.8-3.4-6.2-6.8c-0.3-2.7,1-5,2.9-6.8c1.7-1.6,3.8-2.9,5.9-4c1.9-1,4-1.8,6-2.6c2.3-0.8,4.7-1.6,7.1-2.2
		c3.4-1,6.9-1.9,10.4-2.7c-0.7-2.3-1.4-4.9-1.2-6.8c0.2-2.7,1-5.5,1.9-8c1.6-4.4,4.1-8.5,7-12.2c3.1-4,7-7.4,11.2-10.2
		c1.3-0.9,2.6-1.7,4-2.5c0.4-0.8,1-1.6,1.7-2.2c1.3-1.1,3.2-1.7,4.7-2.2c1.4-0.4,3.3-1,4.7-1c0.8,0,1.5,0.2,2.2,0.4
		c4.4-0.8,9-1.4,13.5-1.8c2.7-0.2,5.4-0.3,8.1-0.2c10.2,0.5,16.6,3.6,21.9,12.6c1.8,3.1,3.1,6.5,4.3,9.8c1.8,5,3.1,10.1,4.5,15.1
		c0.4,1.5,0.7,3.2,0.8,4.8c1.2,2.5,2.1,5.1,2.9,7.7c0.6,1.8,1,3.6,1.4,5.4c0.5,2.5,1,4.9,1.5,7.4c0.2,0.2,0.4,0.4,0.5,0.7
		c1.2,1.6,2.1,3.7,2.7,5.6c1,3.3,1.1,6.7,0.6,10.1c-0.5,2.9-1.5,6.7-3.2,9.3c-0.1,1.3-0.2,2.7-0.4,4c-0.5,4.3-1.2,8.7-2.2,12.9
		c-1,4.5-2.2,9-3.5,13.4c-0.5,1.6-1,3.3-1.5,4.9c0.1,0.7,0.1,1.4,0.1,2.2c0,2-0.2,3.7-0.7,5.7c-0.7,2.4-1.8,4.4-3,6.6
		c-0.7,1.3-1.5,2.5-2.4,3.7c-0.1,0.3-0.2,0.6-0.3,1c-0.2,0.5-0.3,0.9-0.5,1.4c1.1,2.2,2.2,4.4,3.3,6.6c0.8,1.6,1.8,3.2,2.8,4.8
		c1.1,1.8,2.3,3.5,3.4,5.2c1,1.6,2.4,3.4,2.4,5.4c0,0.8-0.2,1.6-0.5,2.4c1.1,1.9,2.4,3.8,3.8,5.5c1.2,1.6,2.9,3.7,4.7,4.6
		c1.5,0.7,3,0.5,4.6,0.1c2-0.6,4-1.6,5.7-2.6c2.3-1.3,4.5-2.8,6.6-4.4c-0.7-1.4-1.2-2.8-1.6-4.2c-0.4-1.3-0.7-2.7-1.2-4
		c-0.1-0.3-0.2-0.6-0.3-0.9c-0.2,0.2-0.5,0.3-0.6,0.5c-2.6,1.9-5.9,3.3-8.7,0.7c-2-1.8-2-4.4-1.1-6.7c0.2-0.5,0.4-1,0.7-1.5
		c-3.8-1.7-4.2-6.7-0.7-9.4c0,0,0-0.1,0-0.1c-0.3-0.8-0.5-1.6-0.4-2.4c0.3-2.5,2.3-4.3,4.6-5c0.6-0.2,1.2-0.2,1.8-0.2
		c0.4-0.3,0.8-0.6,1.1-0.9c0.9-0.7,1.8-1.5,2.8-2.2c1.5-1.2,3.1-2.5,4.7-3.7c0.5-0.4,1.1-0.7,1.7-0.9l22.3-17.7
		c0.1-0.3,0.2-0.7,0.3-1c0.5-1.2,1.6-2.4,2.5-3.4l3.4-3.8l2.2,2.3c0.3,0,0.5,0,0.8,0c1.7,0.1,3,1.1,4.1,2.3c0.3,0.3,0.6,0.7,0.9,1.1
		c0.9,0.9,1.9,2,2.5,3.1c0.5,1,0.7,2.3,1,3.4c0.2,0.8,0.3,1.5,0.4,2.3l0.5,2.8l-1.1,0.9c0.1,0.2,0.1,0.5,0.2,0.7l0.6,2.9l-19.2,15.1
		c0,0.1,0.1,0.1,0.1,0.2c0.8,1.2,1.4,2.5,1.5,4c0.1,2.1-1,3.6-2.5,5c-0.3,0.3-0.7,0.6-1.1,0.9c0.3,0.2,0.5,0.4,0.8,0.6
		c0.5,0.5,1,1,1.4,1.6c0.1,0.1,0.2,0.1,0.3,0.2c2.9,1.8,3.7,5.6,3,8.7C249.8,172.7,249.1,174.1,248.3,175.2L248.3,175.2z M90.8,192
		c0.2-1.1,0.3-2.2,0.5-3.3c0.3-2.1,0.7-4.2,1.1-6.3c0.4-2.1,0.9-4.2,1.4-6.3c-1.2-1.3-2.4-2.7-3.6-4c-1.8,1.6-3.5,3.2-5.2,4.8
		c-2,1.9-4,3.8-5.9,5.8c-1.6,1.7-3.4,3.8-4.3,6c-0.1,0.2-0.2,0.5-0.3,0.8c0.7,0.3,1.9,0.6,2.3,0.7c2.2,0.5,4.5,0.8,6.7,1.1
		C86,191.6,88.4,191.9,90.8,192L90.8,192z"/>
	<g>
		<defs>
			<polyline id="SVGID_1_" points="63.6,255.8 63.6,12.9 260.9,12.9 260.9,255.8 63.6,255.8 			"/>
		</defs>
		<clipPath id="SVGID_2_">
			<use xlink:href="#SVGID_1_"  style="overflow:visible;"/>
		</clipPath>
		<g transform="matrix(1 0 0 1 -3.814697e-06 0)" style="clip-path:url(#SVGID_2_);">
			
				<image style="overflow:visible;" width="956" height="1177" xlink:href="F9034B19.jpg"  transform="matrix(0.2065 0 0 -0.2063 63.552 255.7956)">
			</image>
		</g>
	</g>
	<path class="st1" d="M228.3,267.7l-1,1.4l-0.6,0.1c-38.5,4.7-77,9.4-115.5,14.2l-1.3,0.2v-0.1l-0.1,0.2L32.3,293l-5.3-6.4v-38.1
		l5.2-7.6l29.6-3.6l0.4,0.5l0.1-0.6l83.6-10.3v0.1l3.4-0.4v-0.1l45.8-5.6l0.4,0.5l0.1-0.6l17.6-2.2l0,0.3l0.2-0.3l13.8-1.7l1,1.2
		l1-1.4l35-4.3v52.1l-34.9,4.3L228.3,267.7L228.3,267.7z"/>
	<path class="st6" d="M40.7,260.7v-7.5l-0.6-0.6l-0.7,0.1l-0.6,0.7v25.5l0.6,0.6l0.7-0.1l0.6-0.7V272l-1.1,0.1v-6.4l7-0.9v20.2
		l-2.6,0.3l-1.1-1.5l-1.5,1.8l-6,0.7l-2.3-2.8v-33.4l2.3-3.4l8.9-1.1l2.4,2.8V260L40.7,260.7L40.7,260.7z M62.3,246.6v14.3l-1.5,2.1
		l1.5,1.7v18.4l-5.9,0.7v-16.5l-0.6-0.6l-1.2,0.1v17.2l-5.9,0.7v-39.7l11.2-1.4L62.3,246.6L62.3,246.6z M56.4,259.6v-8.3l-0.6-0.6
		l-1.2,0.1v9.6l1.2-0.1L56.4,259.6L56.4,259.6z M72.6,274.1l-2.2,0.3l-0.5,7.9l-5.9,0.7l3.5-40.1l7.9-1l3.5,39.2l-5.9,0.7
		L72.6,274.1L72.6,274.1z M72.2,267.7l-0.7-11.3l-0.7,11.5L72.2,267.7L72.2,267.7z M94.3,239.6v39.7l-5.4,0.7l-2.7-16v16.4l-5.5,0.7
		v-39.7l5.4-0.7l2.6,16.1v-16.4L94.3,239.6L94.3,239.6z M110,240.7v33.4l-2.4,3.4L96.5,279v-39.7l11.2-1.4L110,240.7L110,240.7z
		 M104.1,270.9v-25.5l-0.6-0.6l-1.2,0.1v26.7l1.3-0.2L104.1,270.9L104.1,270.9z M115.5,243.4l-3.7,0.5v-6.5l13.4-1.6v6.5l-3.7,0.5
		v33.2l-5.9,0.7V243.4L115.5,243.4z M140.6,233.9v39.7l-5.9,0.7v-17.8l-1.8,0.2v17.8l-5.9,0.7v-39.7l5.9-0.7v15.4l1.8-0.2v-15.4
		L140.6,233.9L140.6,233.9z M148.6,239.4v8.9l3.4-0.4v6.5l-3.4,0.4v11.3l3.7-0.5v6.5l-9.6,1.2v-39.6l9.6-1.2v6.5L148.6,239.4
		L148.6,239.4z M160.4,237.9v9l3.4-0.4v6.5l-3.4,0.4v17.8l-5.9,0.7v-39.7l9.6-1.2v6.5L160.4,237.9L160.4,237.9z M165.9,237.2v-6.5
		l13.4-1.6v6.5l-3.7,0.5v33.2l-5.9,0.7v-33.2L165.9,237.2L165.9,237.2z M194.8,230.4v13.5l-1.3,2l1.3,1.7v16.2l-2.4,3.4l-11.2,1.4
		v-39.7l11.2-1.4L194.8,230.4L194.8,230.4z M187.1,243.6l1.2-0.1l0.6-0.7v-7.4l-0.6-0.9l-1.2,0.1V243.6L187.1,243.6z M188.9,260.5
		v-9.8l-0.6-0.8l-1.2,0.1v11.3l1.2-0.1L188.9,260.5L188.9,260.5z M205.1,257.8l-2.2,0.3l-0.5,7.9l-5.9,0.7l3.5-40.1l7.9-1l3.5,39.2
		l-5.9,0.7L205.1,257.8L205.1,257.8z M204.7,251.4l-0.7-11.3l-0.7,11.5L204.7,251.4L204.7,251.4z M220.8,238.7v-7.6l-0.6-0.6
		l-0.6,0.1l-0.6,0.7v25.5l0.6,0.6l0.6-0.1l0.6-0.7v-10.4l5.9-0.7v14.4l-2.3,3.4l-8.9,1.1l-2.3-2.8v-33.4l2.3-3.4l8.9-1.1l2.3,2.8
		V238L220.8,238.7L220.8,238.7z M242.4,224.5v33.4l-2.4,3.4l-8.9,1.1l-2.3-2.8v-33.4l2.3-3.4l8.9-1.1L242.4,224.5L242.4,224.5z
		 M236.5,254.7v-25.5l-0.6-0.6l-0.6,0.1l-0.6,0.7v25.5l0.6,0.6l0.6-0.1L236.5,254.7L236.5,254.7z M258.2,219.5v39.7l-5.4,0.7
		l-2.7-16v16.4l-5.5,0.7v-39.7l5.4-0.7l2.6,16.1v-16.4L258.2,219.5L258.2,219.5z"/>
	<g>
		<defs>
			<path id="SVGID_3_" d="M33.7,264.3v18.9l1.9,2.4l5.4-0.7l1.8-2.2l1.3,1.8l1.6-0.2v-18.5l-5.6,0.7v4.7l1.1-0.1v7.9l-1,1.2
				l-1.2,0.1l-1-1v-15.7L33.7,264.3L33.7,264.3z M49.4,262.4l12-1.5l-1.7,2.2l1.8,2.1v17.2l-4.5,0.6v-16.1l-1-1l-2.2,0.3v17.2
				l-4.5,0.6V262.4L49.4,262.4z M66.8,260.2l3.9-0.5l-0.5,9l2.9-0.4l-0.6-8.9l3.9-0.5l1.9,21.3l-4.5,0.6l-0.4-7.8l-3.4,0.4l-0.5,7.9
				l-4.5,0.5L66.8,260.2L66.8,260.2z M81.4,258.4l12.2-1.5v21.5l-4.1,0.5l-2.7-16.1l-1.2,0.3v16.3l-4.1,0.5V258.4L81.4,258.4z
				 M97.1,256.5l4.5-0.6v16.7l2.2-0.3l0.9-1.2v-15.6l4.5-0.6v18.9l-2,2.8L97.1,278V256.5L97.1,256.5z M116.2,254.2l4.5-0.6v21.5
				l-4.5,0.6V254.2L116.2,254.2z M127.7,252.8l12.2-1.5v21.5l-4.5,0.6v-17.8l-3.2,0.4v17.8l-4.5,0.6V252.8L127.7,252.8z
				 M143.4,250.8l7.9-1v3.7l-3.4,0.4v13l3.7-0.5v4.8l-8.3,1V250.8L143.4,250.8z M155.3,249.4l7.9-1v3.7l-3.4,0.4v17.8l-4.5,0.6
				V249.4L155.3,249.4z M170.3,247.5l4.5-0.6v21.5l-4.5,0.6V247.5L170.3,247.5z M181.9,246.1l11.5-1.4l-0.8,1.3l1.5,2v15.6l-2,2.8
				l-10.2,1.3V246.1L181.9,246.1z M199.2,244l3.9-0.5l-0.5,9l2.9-0.4l-0.6-8.9l3.9-0.5l1.9,21.3l-4.5,0.6l-0.4-7.8l-3.4,0.4
				l-0.5,7.9l-4.5,0.5L199.2,244L199.2,244z M213.9,242.2l4.5-0.6v15.7l1,1l1.2-0.1l1-1.2v-10l4.5-0.6v13.2l-1.9,2.8l-8.3,1
				l-1.9-2.4V242.2L213.9,242.2z M229.6,240.3l4.5-0.6v15.7l1,1l1.2-0.1l1-1.2v-15.7l4.5-0.6v18.9l-2,2.8l-8.3,1l-1.9-2.4V240.3
				L229.6,240.3z M245.3,238.3l12.2-1.5v21.5l-4.1,0.5l-2.7-16.1l-1.2,0.3v16.3l-4.1,0.5V238.3L245.3,238.3z M189.6,260.8l-1,1.2
				l-2.2,0.3v-13l2.3-0.3l0.9,1.4V260.8L189.6,260.8z"/>
		</defs>
		<clipPath id="SVGID_4_">
			<use xlink:href="#SVGID_3_"  style="overflow:visible;"/>
		</clipPath>
		<g class="st7">
			<defs>
				<rect id="SVGID_5_" x="33.7" y="236.8" width="223.8" height="48.7"/>
			</defs>
			<clipPath id="SVGID_6_">
				<use xlink:href="#SVGID_5_"  style="overflow:visible;"/>
			</clipPath>
			<g style="clip-path:url(#SVGID_6_);">
				
					<image style="overflow:visible;" width="412" height="93" xlink:href="F9034B1B.jpg"  transform="matrix(0.5505 0 0 -0.5505 32.1214 286.5683)">
				</image>
			</g>
		</g>
	</g>
</g>
</svg>
