<svg width="26" height="26" viewBox="0 0 26 26" fill="none" xmlns="http://www.w3.org/2000/svg">
<circle cx="13" cy="13" r="13" fill="white"/>
<path fill-rule="evenodd" clip-rule="evenodd" d="M6 13C6 11.6058 6 10.9087 6.12569 10.3309C6.5834 8.22684 8.22684 6.5834 10.3309 6.12569C10.9087 6 11.6058 6 13 6C14.3942 6 15.0913 6 15.6691 6.12569C17.7732 6.5834 19.4166 8.22684 19.8743 10.3309C20 10.9087 20 11.6058 20 13C20 14.3942 20 15.0913 19.8743 15.6691C19.4166 17.7732 17.7732 19.4166 15.6691 19.8743C15.0913 20 14.3942 20 13 20C11.6058 20 10.9087 20 10.3309 19.8743C8.22684 19.4166 6.5834 17.7732 6.12569 15.6691C6 15.0913 6 14.3942 6 13ZM13.0001 9.29424C10.9535 9.29424 9.29424 10.9535 9.29424 13.0001C9.29424 15.0467 10.9535 16.706 13.0001 16.706C15.0467 16.706 16.706 15.0467 16.706 13.0001C16.706 10.9535 15.0467 9.29424 13.0001 9.29424ZM13.0001 15.3163C11.7234 15.3163 10.6839 14.2768 10.6839 13.0001C10.6839 11.7225 11.7234 10.6839 13.0001 10.6839C14.2768 10.6839 15.3163 11.7225 15.3163 13.0001C15.3163 14.2768 14.2768 15.3163 13.0001 15.3163ZM17.4777 9.01627C17.4777 9.28899 17.2566 9.51008 16.9839 9.51008C16.7112 9.51008 16.4901 9.28899 16.4901 9.01627C16.4901 8.74355 16.7112 8.52246 16.9839 8.52246C17.2566 8.52246 17.4777 8.74355 17.4777 9.01627Z" fill="#1A1B20"/>
</svg>
