<svg width="26" height="26" viewBox="0 0 26 26" fill="none" xmlns="http://www.w3.org/2000/svg">
<path d="M26 13C26 20.176 20.176 26 13 26C5.824 26 0 20.176 0 13C0 5.824 5.824 0 13 0C20.176 0 26 5.824 26 13Z" fill="white"/>
<path d="M6.42199 13.4421L6.47399 13.3641L9.85399 8.08606C9.90599 8.00806 10.01 8.00806 10.062 8.11206C10.634 9.38606 11.102 10.9461 10.894 11.9341C10.79 12.3501 10.53 12.8961 10.218 13.3901C10.192 13.4681 10.14 13.5461 10.088 13.5981C10.062 13.6241 10.036 13.6501 9.98399 13.6501H6.49999C6.42199 13.6241 6.36999 13.5201 6.42199 13.4421Z" fill="#1A1B20"/>
<path d="M21.476 14.43V15.262C21.476 15.314 21.45 15.34 21.398 15.366C21.138 15.47 20.228 15.886 19.864 16.406C18.902 17.732 18.174 19.63 16.562 19.63H9.77602C7.38402 19.63 5.43402 17.68 5.43402 15.262V15.184C5.43402 15.132 5.48602 15.08 5.53802 15.08H9.36002C9.43802 15.08 9.49002 15.158 9.49002 15.21C9.46402 15.444 9.51602 15.704 9.62002 15.938C9.85402 16.406 10.322 16.666 10.816 16.666H12.688V15.21H10.842C10.738 15.21 10.686 15.106 10.738 15.028C10.764 15.002 10.79 14.976 10.816 14.924C10.998 14.664 11.232 14.3 11.492 13.858C11.674 13.572 11.83 13.234 11.96 12.922C11.986 12.87 12.012 12.818 12.038 12.74C12.064 12.636 12.116 12.532 12.142 12.454C12.168 12.376 12.194 12.298 12.22 12.22C12.272 11.96 12.298 11.674 12.298 11.362C12.298 11.258 12.298 11.128 12.272 10.998C12.272 10.868 12.246 10.738 12.246 10.608C12.246 10.504 12.22 10.374 12.194 10.27C12.168 10.088 12.142 9.93201 12.09 9.75001L12.064 9.69801C12.038 9.59401 12.012 9.46401 11.96 9.36001C11.856 8.99601 11.726 8.63201 11.596 8.32001C11.544 8.19001 11.492 8.06001 11.44 7.93001C11.362 7.74801 11.284 7.56601 11.206 7.41001C11.18 7.33201 11.128 7.28001 11.102 7.20201C11.076 7.12401 11.024 7.04601 10.998 6.96801C10.972 6.91601 10.946 6.86401 10.92 6.81201L10.686 6.39601C10.66 6.34401 10.712 6.26601 10.764 6.29201L12.194 6.68201L12.376 6.73401L12.584 6.78601L12.662 6.81201V5.95401C12.662 5.53801 13 5.20001 13.39 5.20001C13.598 5.20001 13.78 5.27801 13.91 5.40801C14.04 5.53801 14.118 5.72001 14.118 5.92801V7.17601L14.274 7.22801C14.274 7.22801 14.3 7.22801 14.3 7.25401C14.326 7.28001 14.378 7.33201 14.456 7.38401C14.508 7.43601 14.56 7.48801 14.638 7.54001C14.768 7.64401 14.95 7.80001 15.132 7.95601C15.184 8.00801 15.236 8.03401 15.262 8.08601C15.496 8.29401 15.756 8.55401 16.016 8.84001C16.094 8.91801 16.146 8.99601 16.224 9.07401C16.302 9.15201 16.354 9.25601 16.432 9.33401C16.51 9.43801 16.614 9.56801 16.692 9.67201C16.718 9.72401 16.77 9.77601 16.796 9.85401C16.9 10.01 16.978 10.166 17.082 10.322C17.108 10.4 17.16 10.478 17.186 10.556C17.29 10.764 17.368 10.972 17.394 11.206C17.42 11.258 17.42 11.31 17.42 11.336C17.446 11.388 17.446 11.466 17.446 11.544C17.472 11.778 17.446 11.986 17.42 12.22C17.394 12.324 17.368 12.402 17.342 12.506C17.316 12.584 17.29 12.688 17.238 12.792C17.16 12.974 17.056 13.156 16.952 13.338C16.926 13.39 16.874 13.468 16.822 13.546C16.77 13.624 16.718 13.676 16.692 13.754C16.64 13.832 16.562 13.91 16.51 13.988C16.458 14.066 16.406 14.144 16.328 14.222C16.25 14.326 16.146 14.43 16.068 14.534C16.016 14.586 15.964 14.664 15.886 14.716C15.834 14.768 15.782 14.846 15.704 14.898C15.626 14.976 15.548 15.054 15.47 15.106L15.314 15.236C15.288 15.262 15.262 15.262 15.236 15.262H14.092V16.718H15.522C15.834 16.718 16.146 16.614 16.38 16.406C16.458 16.328 16.822 16.016 17.264 15.548C17.29 15.522 17.29 15.522 17.316 15.522L21.268 14.378C21.424 14.3 21.476 14.352 21.476 14.43Z" fill="#1A1B20"/>
</svg>
